<svg width="255" height="72" fill="none" xmlns="http://www.w3.org/2000/svg"><path fill="#FF5722" d="M0 0h255v72H0z"/><path d="M63.556 39.931c.132 0 .246.051.342.153l.954 1.035a5.23 5.23 0 01-1.953 1.503c-.768.348-1.692.522-2.772.522-.966 0-1.836-.165-2.61-.495a5.753 5.753 0 01-1.971-1.377 6.083 6.083 0 01-1.26-2.106c-.288-.816-.432-1.707-.432-2.673 0-.978.162-1.872.486-2.682a6.147 6.147 0 011.368-2.106 6.147 6.147 0 012.106-1.368c.822-.33 1.728-.495 2.718-.495.966 0 1.809.156 2.529.468a5.846 5.846 0 011.863 1.224l-.81 1.125a.708.708 0 01-.19.189.502.502 0 01-.305.081.708.708 0 01-.423-.162 4.446 4.446 0 00-1.395-.702c-.336-.108-.765-.162-1.287-.162-.612 0-1.176.108-1.692.324-.51.21-.951.513-1.323.909a4.29 4.29 0 00-.864 1.449c-.204.564-.306 1.2-.306 1.908 0 .732.102 1.383.306 1.953.21.57.492 1.05.846 1.44.354.39.77.69 1.25.9.48.204.997.306 1.549.306.33 0 .627-.018.89-.054.27-.036.517-.093.739-.171.228-.078.44-.177.639-.297.204-.126.405-.279.603-.459a.742.742 0 01.189-.126.444.444 0 01.216-.054zM66.56 43V29.626h2.223v5.139c.36-.342.756-.618 1.188-.828.432-.21.94-.315 1.521-.315.504 0 .951.087 1.341.261.39.168.714.408.972.72.264.306.462.675.594 1.107.138.426.207.897.207 1.413V43h-2.223v-5.877c0-.564-.132-.999-.396-1.305-.258-.312-.648-.468-1.17-.468-.384 0-.744.087-1.08.261a3.87 3.87 0 00-.954.711V43H66.56zm14.046-9.378c.583 0 1.117.093 1.603.279.492.186.915.459 1.269.819.354.354.63.792.828 1.314.198.516.297 1.107.297 1.773 0 .168-.01.309-.027.423a.61.61 0 01-.081.261.336.336 0 01-.154.135.747.747 0 01-.251.036h-5.707c.067.948.322 1.644.766 2.088.444.444 1.031.666 1.763.666.36 0 .67-.042.927-.126a4.14 4.14 0 00.684-.279c.199-.102.37-.195.514-.279a.885.885 0 01.431-.126c.09 0 .168.018.234.054a.517.517 0 01.172.153l.648.81a3.804 3.804 0 01-.829.729 4.922 4.922 0 01-.962.468c-.33.114-.67.195-1.017.243a7.186 7.186 0 01-1 .072 4.995 4.995 0 01-1.79-.315 4.09 4.09 0 01-1.44-.945 4.49 4.49 0 01-.963-1.548c-.234-.618-.352-1.332-.352-2.142 0-.63.103-1.221.306-1.773a4.254 4.254 0 01.874-1.449 4.16 4.16 0 011.394-.981c.553-.24 1.174-.36 1.864-.36zm.046 1.593c-.648 0-1.156.183-1.522.549-.365.366-.6.885-.701 1.557h4.175c0-.288-.038-.558-.117-.81a1.874 1.874 0 00-.36-.675 1.66 1.66 0 00-.611-.45 2.037 2.037 0 00-.865-.171zm12.243.504c-.066.084-.132.15-.198.198-.06.048-.15.072-.27.072a.63.63 0 01-.333-.099 5.92 5.92 0 00-.387-.234c-.15-.09-.33-.168-.54-.234a2.324 2.324 0 00-.765-.108c-.39 0-.732.072-1.026.216-.294.138-.54.339-.738.603a2.785 2.785 0 00-.432.963 5.092 5.092 0 00-.144 1.269c0 .492.05.93.153 1.314.108.384.26.708.459.972.198.258.438.456.72.594.282.132.6.198.954.198s.639-.042.855-.126c.222-.09.408-.186.558-.288.15-.108.279-.204.387-.288a.596.596 0 01.378-.135c.18 0 .315.069.405.207l.639.81a4.14 4.14 0 01-.801.729 4.59 4.59 0 01-.9.468 4.636 4.636 0 01-.954.243c-.33.048-.657.072-.981.072-.57 0-1.107-.105-1.611-.315A3.857 3.857 0 0187 41.884a4.6 4.6 0 01-.891-1.494c-.216-.594-.324-1.269-.324-2.025 0-.678.096-1.305.288-1.881a4.273 4.273 0 01.864-1.503 3.914 3.914 0 011.404-.999c.558-.24 1.2-.36 1.926-.36.69 0 1.293.111 1.809.333.522.222.99.54 1.404.954l-.585.81zm4.339-6.093v7.659h.414a.79.79 0 00.35-.063.91.91 0 00.27-.234l2.296-2.835c.102-.12.21-.213.324-.279a.833.833 0 01.45-.108h2.034l-2.871 3.429a4.499 4.499 0 01-.315.351 2.185 2.185 0 01-.351.27c.126.09.237.195.333.315.096.12.192.249.288.387L103.534 43h-2.007a.98.98 0 01-.441-.09.864.864 0 01-.324-.306l-2.35-3.501c-.09-.138-.18-.228-.27-.27-.09-.042-.224-.063-.404-.063h-.504V43H95.01V29.626h2.223zM115.632 43h-.999c-.21 0-.375-.03-.495-.09-.12-.066-.21-.195-.27-.387l-.198-.657c-.234.21-.465.396-.693.558a4.205 4.205 0 01-.693.396c-.24.108-.495.189-.765.243-.27.054-.57.081-.9.081-.39 0-.75-.051-1.08-.153a2.428 2.428 0 01-.855-.477 2.171 2.171 0 01-.549-.783 2.778 2.778 0 01-.198-1.089c0-.348.09-.69.27-1.026.186-.342.492-.648.918-.918.426-.276.993-.504 1.701-.684.708-.18 1.587-.282 2.637-.306v-.54c0-.618-.132-1.074-.396-1.368-.258-.3-.636-.45-1.134-.45-.36 0-.66.042-.9.126-.24.084-.45.18-.63.288-.174.102-.336.195-.486.279a.996.996 0 01-.495.126.643.643 0 01-.387-.117.921.921 0 01-.261-.288l-.405-.711c1.062-.972 2.343-1.458 3.843-1.458.54 0 1.02.09 1.44.27.426.174.786.42 1.08.738.294.312.516.687.666 1.125.156.438.234.918.234 1.44V43zm-4.32-1.386c.228 0 .438-.021.63-.063.192-.042.372-.105.54-.189.174-.084.339-.186.495-.306.162-.126.324-.273.486-.441v-1.557c-.648.03-1.191.087-1.629.171-.432.078-.78.18-1.044.306s-.453.273-.567.441a.995.995 0 00-.162.549c0 .39.114.669.342.837.234.168.537.252.909.252zM122.127 43h-2.016l-3.672-9.234h1.845c.162 0 .297.039.405.117a.592.592 0 01.234.297l1.782 4.932c.102.288.186.57.252.846.072.276.135.552.189.828.054-.276.114-.552.18-.828a8.58 8.58 0 01.27-.846l1.827-4.932a.608.608 0 01.225-.297.643.643 0 01.387-.117h1.755L122.127 43zm12.208 0h-.999c-.21 0-.375-.03-.495-.09-.12-.066-.21-.195-.27-.387l-.198-.657c-.234.21-.465.396-.693.558a4.205 4.205 0 01-.693.396c-.24.108-.495.189-.765.243-.27.054-.57.081-.9.081-.39 0-.75-.051-1.08-.153a2.428 2.428 0 01-.855-.477 2.171 2.171 0 01-.549-.783 2.778 2.778 0 01-.198-1.089c0-.348.09-.69.27-1.026.186-.342.492-.648.918-.918.426-.276.993-.504 1.701-.684.708-.18 1.587-.282 2.637-.306v-.54c0-.618-.132-1.074-.396-1.368-.258-.3-.636-.45-1.134-.45-.36 0-.66.042-.9.126-.24.084-.45.18-.63.288-.174.102-.336.195-.486.279a.996.996 0 01-.495.126.643.643 0 01-.387-.117.921.921 0 01-.261-.288l-.405-.711c1.062-.972 2.343-1.458 3.843-1.458.54 0 1.02.09 1.44.27.426.174.786.42 1.08.738.294.312.516.687.666 1.125.156.438.234.918.234 1.44V43zm-4.32-1.386c.228 0 .438-.021.63-.063.192-.042.372-.105.54-.189.174-.084.339-.186.495-.306.162-.126.324-.273.486-.441v-1.557c-.648.03-1.191.087-1.629.171-.432.078-.78.18-1.044.306s-.453.273-.567.441a.995.995 0 00-.162.549c0 .39.114.669.342.837.234.168.537.252.909.252zm8.873-7.848V43h-2.223v-9.234h2.223zm.333-2.691c0 .192-.039.372-.117.54a1.445 1.445 0 01-.315.441 1.492 1.492 0 01-.45.306c-.174.072-.36.108-.558.108-.192 0-.375-.036-.549-.108a1.527 1.527 0 01-.747-.747 1.445 1.445 0 010-1.098c.078-.174.18-.324.306-.45s.273-.225.441-.297c.174-.078.357-.117.549-.117.198 0 .384.039.558.117.174.072.324.171.45.297.132.126.237.276.315.45.078.174.117.36.117.558zM141.435 43V29.626h2.223V34.9a4.31 4.31 0 011.242-.927c.462-.234 1.002-.351 1.62-.351a3 3 0 011.377.315c.42.204.78.504 1.08.9.306.396.54.885.702 1.467.168.582.252 1.251.252 2.007 0 .69-.093 1.329-.279 1.917a4.642 4.642 0 01-.801 1.53 3.67 3.67 0 01-1.251 1.017 3.65 3.65 0 01-1.638.36c-.282 0-.54-.03-.774-.09a2.603 2.603 0 01-.639-.234 2.966 2.966 0 01-.54-.369 5.278 5.278 0 01-.468-.495l-.099.621c-.036.156-.099.267-.189.333a.555.555 0 01-.351.099h-1.467zm4.32-7.65c-.462 0-.858.099-1.188.297a3.382 3.382 0 00-.909.819v4.14c.252.312.525.531.819.657.3.12.624.18.972.18.336 0 .639-.063.909-.189s.498-.318.684-.576c.192-.258.339-.582.441-.972.102-.396.153-.861.153-1.395 0-.54-.045-.996-.135-1.368-.084-.378-.207-.684-.369-.918a1.467 1.467 0 00-.594-.513 1.808 1.808 0 00-.783-.162zm8.285-1.584V43h-2.223v-9.234h2.223zm.333-2.691c0 .192-.039.372-.117.54a1.445 1.445 0 01-.315.441 1.492 1.492 0 01-.45.306c-.174.072-.36.108-.558.108-.192 0-.375-.036-.549-.108a1.527 1.527 0 01-.747-.747 1.445 1.445 0 010-1.098c.078-.174.18-.324.306-.45s.273-.225.441-.297c.174-.078.357-.117.549-.117.198 0 .384.039.558.117.174.072.324.171.45.297.132.126.237.276.315.45.078.174.117.36.117.558zm4.554-1.449V43h-2.223V29.626h2.223zm4.887 4.14V43h-2.223v-9.234h2.223zm.333-2.691c0 .192-.039.372-.117.54a1.445 1.445 0 01-.315.441 1.492 1.492 0 01-.45.306c-.174.072-.36.108-.558.108-.192 0-.375-.036-.549-.108a1.527 1.527 0 01-.747-.747 1.445 1.445 0 010-1.098c.078-.174.18-.324.306-.45s.273-.225.441-.297c.174-.078.357-.117.549-.117.198 0 .384.039.558.117.174.072.324.171.45.297.132.126.237.276.315.45.078.174.117.36.117.558zm5.22 12.069c-.798 0-1.413-.225-1.845-.675-.432-.456-.648-1.083-.648-1.881v-5.157h-.936a.466.466 0 01-.315-.117c-.084-.078-.126-.195-.126-.351v-.882l1.485-.243.468-2.52a.453.453 0 01.162-.279.548.548 0 01.333-.099h1.152v2.907h2.43v1.584h-2.43v5.004c0 .288.072.513.216.675a.733.733 0 00.576.243c.138 0 .252-.015.342-.045.096-.036.177-.072.243-.108.072-.036.135-.069.189-.099a.29.29 0 01.162-.054.24.24 0 01.162.054c.042.03.087.078.135.144l.666 1.08c-.324.27-.696.474-1.116.612-.42.138-.855.207-1.305.207zm7.203 2.394a.807.807 0 01-.261.351c-.102.084-.261.126-.477.126h-1.656l1.728-3.699-3.735-8.55h1.944c.18 0 .318.042.414.126.096.084.168.18.216.288l1.971 4.788c.066.156.123.318.171.486.048.168.09.336.126.504.048-.174.099-.342.153-.504.06-.162.123-.327.189-.495l1.854-4.779a.655.655 0 01.612-.414h1.782l-5.031 11.772zm46.963-9.545c0 .294-.106.56-.32.774l-6.933 6.666c-.427.4-1.093.4-1.52-.026-.4-.427-.4-1.094.027-1.52l6.133-5.894-6.133-5.893c-.427-.4-.427-1.093-.027-1.52.4-.427 1.093-.427 1.52-.027l6.933 6.667c.214.213.32.48.32.773z" fill="#fff"/></svg>