<svg width="132" height="132" fill="none" xmlns="http://www.w3.org/2000/svg"><g filter="url(#filter0_f)"><path fill="#DD2C00" fill-opacity=".24" d="M98 34v64H34V34z"/></g><path fill="#fff" d="M105 44v48H41V44z"/><path d="M73.007 73.534a1.07 1.07 0 01-.774-.32l-6.666-6.934c-.4-.427-.4-1.093.026-1.52.427-.4 1.094-.4 1.52.027l5.894 6.133 5.893-6.133c.4-.427 1.093-.427 1.52-.027.427.4.427 1.093.027 1.52l-6.667 6.933c-.213.214-.48.32-.773.32z" fill="#FF5722"/><defs><filter id="filter0_f" x="0" y="0" width="132" height="132" filterUnits="userSpaceOnUse" color-interpolation-filters="sRGB"><feFlood flood-opacity="0" result="BackgroundImageFix"/><feBlend in="SourceGraphic" in2="BackgroundImageFix" result="shape"/><feGaussianBlur stdDeviation="17" result="effect1_foregroundBlur"/></filter></defs></svg>