<svg width="112" height="112" fill="none" xmlns="http://www.w3.org/2000/svg"><g filter="url(#filter0_f)"><path fill="#DFDFDF" fill-opacity=".7" d="M88 24v64H24V24z"/></g><path fill="#FF5722" d="M98 31v48H34V31z"/><path d="M66.007 60.533c-.294 0-.56-.106-.774-.32l-6.666-6.933c-.4-.427-.4-1.093.026-1.52.427-.4 1.094-.4 1.52.027l5.894 6.133 5.893-6.133c.4-.427 1.093-.427 1.52-.027.427.4.427 1.093.027 1.52l-6.667 6.934c-.213.213-.48.32-.773.32z" fill="#fff"/><defs><filter id="filter0_f" x="0" y="0" width="112" height="112" filterUnits="userSpaceOnUse" color-interpolation-filters="sRGB"><feFlood flood-opacity="0" result="BackgroundImageFix"/><feBlend in="SourceGraphic" in2="BackgroundImageFix" result="shape"/><feGaussianBlur stdDeviation="12" result="effect1_foregroundBlur"/></filter></defs></svg>