<svg width="40" height="40" fill="none" xmlns="http://www.w3.org/2000/svg"><g filter="url(#filter0_dd)"><path d="M32.25 7.5A3.754 3.754 0 0036 3.75 3.754 3.754 0 0032.25 0a3.754 3.754 0 00-3.75 3.75 3.754 3.754 0 003.75 3.75zm0-5a1.25 1.25 0 110 2.5 1.25 1.25 0 010-2.5zm-24.5 5a3.754 3.754 0 003.75-3.75A3.754 3.754 0 007.75 0 3.754 3.754 0 004 3.75 3.754 3.754 0 007.75 7.5zm0-5a1.25 1.25 0 110 2.5 1.25 1.25 0 010-2.5zm24.52 6.188h-.019c-2.587 0-3.568 1.883-4.186 3.727l-.966 2.898h-1.474v-2.876a3.754 3.754 0 00-3.75-3.75h-3.75a3.754 3.754 0 00-3.75 3.75v2.876h-1.474c-.3-.9-.755-2.27-.966-2.898-.618-1.844-1.599-3.727-4.186-3.727H7.73A3.754 3.754 0 004 12.438v6.812a3.756 3.756 0 002.5 3.535v.027c.032 0 .064.003.095.005.14.046.282.083.428.112.428.198.727.631.727 1.134V32h2.5v-7.938A3.73 3.73 0 0010.096 23h1.466c.69 0 1.25.56 1.25 1.25V32h2.5v-7.75a3.754 3.754 0 00-3.75-3.75H7.75a.99.99 0 01-.095-.005 3.734 3.734 0 00-.428-.111A1.25 1.25 0 016.5 19.25v-6.813a1.25 1.25 0 011.239-1.25c.565-.002 1.147-.003 1.826 2.023.324.968 1.24 3.72 1.249 3.747l.284.855h17.804l.284-.855c.01-.028.925-2.779 1.25-3.747.678-2.026 1.26-2.024 1.825-2.023a1.25 1.25 0 011.239 1.25v6.813c0 .502-.299.936-.727 1.134a3.732 3.732 0 00-.428.111 1.211 1.211 0 01-.095.005H28.5a3.754 3.754 0 00-3.75 3.75V32h2.5v-7.75c0-.69.56-1.25 1.25-1.25h1.404c-.1.337-.154.694-.154 1.063V32h2.5v-7.938c0-.502.299-.935.727-1.133.146-.03.288-.066.428-.112.031-.002.063-.005.095-.005v-.027A3.756 3.756 0 0036 19.25v-6.813a3.754 3.754 0 00-3.73-3.75zm-15.395 3.75c0-.69.56-1.25 1.25-1.25h3.75c.69 0 1.25.56 1.25 1.25v2.874h-6.25v-2.874zM20 7.5a3.754 3.754 0 003.75-3.75A3.754 3.754 0 0020 0a3.754 3.754 0 00-3.75 3.75A3.754 3.754 0 0020 7.5zm0-5A1.25 1.25 0 1120 5a1.25 1.25 0 010-2.5z" fill="#10375C"/></g><defs><filter id="filter0_dd" x="0" y="0" width="40" height="40" filterUnits="userSpaceOnUse" color-interpolation-filters="sRGB"><feFlood flood-opacity="0" result="BackgroundImageFix"/><feColorMatrix in="SourceAlpha" values="0 0 0 0 0 0 0 0 0 0 0 0 0 0 0 0 0 0 127 0"/><feOffset dy="4"/><feGaussianBlur stdDeviation="2"/><feColorMatrix values="0 0 0 0 0 0 0 0 0 0 0 0 0 0 0 0 0 0 0.25 0"/><feBlend in2="BackgroundImageFix" result="effect1_dropShadow"/><feColorMatrix in="SourceAlpha" values="0 0 0 0 0 0 0 0 0 0 0 0 0 0 0 0 0 0 127 0"/><feOffset dy="4"/><feGaussianBlur stdDeviation="2"/><feColorMatrix values="0 0 0 0 0 0 0 0 0 0 0 0 0 0 0 0 0 0 0.25 0"/><feBlend in2="effect1_dropShadow" result="effect2_dropShadow"/><feBlend in="SourceGraphic" in2="effect2_dropShadow" result="shape"/></filter></defs></svg>